{"title":"Hancock 2008 DVDrip English Klam","uid":6378652,"size":1474620729,"categoryP":"video","categoryS":"movies","magnet":"?xt=urn:btih:4b28e9ae2c7da97e5a9f9bd078279ae364092510&amp;dn=Hancock+2008+DVDrip+English+Klam&amp;tr=udp%3A%2F%2Ftracker.openbittorrent.com%3A80&amp;tr=udp%3A%2F%2Fopen.demonii.com%3A1337&amp;tr=udp%3A%2F%2Ftracker.coppersurfer.tk%3A6969&amp;tr=udp%3A%2F%2Fexodus.desync.com%3A6969","seeders":0,"leechers":1,"uploader":"Klambake","files":-1,"time":1304949553,"description":"With: Will Smith, Charlize Theron and Jason Bateman\n\nThe powerful superhero John Hancock has become a joke because of his alcoholism and clumsiness. He has also become the most hated man in Los Angeles. Though he has saved many lives, he also destroyed a lot of property, costing the city millions every time he goes into action. When he saves the life of PR expert Ray Embrey from an oncoming train, the executive is thankful and believes he can restore Hancock's image as a true superhero. He brings the anti-hero home for dinner and introduces him to his son Aaron, a big fan, and to his wife, Mary. But for some mysterious reason Mary doesn't want Hancock anywhere near her or her family.\n\nGeneral:\n\nComplete name                    : Hancock\\Hancock.avi\nFormat                           : AVI\nFormat/Info                      : Audio Video Interleave\nFile size                        : 1.37 GiB\nDuration                         : 1h 32mn\nOverall bit rate                 : 2 129 Kbps\n\nVideo:\n\nFormat                           : MPEG-4 Visual\nFormat profile                   : Simple@L3\nFormat settings, BVOP            : No\nFormat settings, QPel            : No\nFormat settings, GMC             : No warppoints\nFormat settings, Matrix          : Default (H.263)\nCodec ID                         : XVID\nCodec ID/Hint                    : XviD\nDuration                         : 1h 32mn\nBit rate                         : 1 671 Kbps\nWidth                            : 720 pixels\nHeight                           : 304 pixels\nDisplay aspect ratio             : 2.35:1\nFrame rate                       : 23.976 fps\nColor space                      : YUV\nChroma subsampling               : 4:2:0\nBit depth                        : 8 bits\nScan type                        : Progressive\nBits/(Pixel*Frame)               : 0.318\nStream size                      : 1.08 GiB (78%)\nWriting library                  : XviD 1.1.2 (UTC 2006-11-01)\n\nAudio:\n\nFormat                           : AC-3\nFormat/Info                      : Audio Coding 3\nMode extension                   : CM (complete main)\nCodec ID                         : 2000\nDuration                         : 1h 32mn\nBit rate mode                    : Constant\nBit rate                         : 448 Kbps\nChannel(s)                       : 6 channels\nChannel positions                : Front: L C R, Side: L R, LFE\nSampling rate                    : 48.0 KHz\nBit depth                        : 16 bits\nStream size                      : 296 MiB (21%)\nAlignment                        : Aligned on interleaves\nInterleave, duration             : 32 ms (0.77 video frame)\n\n\n","torrent":{"xt":"urn:btih:4b28e9ae2c7da97e5a9f9bd078279ae364092510","amp;dn":"Hancock+2008+DVDrip+English+Klam","amp;tr":["udp%3A%2F%2Ftracker.openbittorrent.com%3A80","udp%3A%2F%2Fopen.demonii.com%3A1337","udp%3A%2F%2Ftracker.coppersurfer.tk%3A6969","udp%3A%2F%2Fexodus.desync.com%3A6969"],"infoHash":"4b28e9ae2c7da97e5a9f9bd078279ae364092510","infoHashBuffer":{"type":"Buffer","data":[75,40,233,174,44,125,169,126,90,159,155,208,120,39,154,227,100,9,37,16]},"announce":[],"urlList":[]}}